<?xml version="1.0" encoding="UTF-8"?>
<svg width="700pt" height="700pt" version="1.1" viewBox="0 0 700 700" xmlns="http://www.w3.org/2000/svg" xmlns:xlink="http://www.w3.org/1999/xlink">
 <defs>
  <symbol id="v" overflow="visible">
   <path d="m4.6406-0.28125c-0.24219 0.125-0.49219 0.21875-0.75 0.28125-0.25 0.0625-0.51562 0.09375-0.79688 0.09375-0.84375 0-1.5156-0.23438-2.0156-0.70312-0.49219-0.46875-0.73438-1.1094-0.73438-1.9219 0-0.80078 0.24219-1.4375 0.73438-1.9062 0.5-0.47656 1.1719-0.71875 2.0156-0.71875 0.28125 0 0.54688 0.039062 0.79688 0.10938 0.25781 0.0625 0.50781 0.15625 0.75 0.28125v1.0469c-0.24219-0.16406-0.48047-0.28516-0.71875-0.35938-0.23047-0.082031-0.47656-0.125-0.73438-0.125-0.46094 0-0.82422 0.15234-1.0938 0.45312-0.27344 0.29297-0.40625 0.69922-0.40625 1.2188 0 0.53125 0.13281 0.94922 0.40625 1.25 0.26953 0.29297 0.63281 0.4375 1.0938 0.4375 0.25781 0 0.50391-0.035156 0.73438-0.10938 0.23828-0.082031 0.47656-0.20703 0.71875-0.375z"/>
  </symbol>
  <symbol id="d" overflow="visible">
   <path d="m3.4062-2.7656c-0.11719-0.039063-0.22656-0.070313-0.32812-0.09375-0.10547-0.03125-0.21094-0.046875-0.3125-0.046875-0.3125 0-0.55469 0.10156-0.71875 0.29688-0.16797 0.19922-0.25 0.48438-0.25 0.85938v1.75h-1.2188v-3.7969h1.2188v0.625c0.15625-0.25 0.33203-0.42969 0.53125-0.54688 0.20703-0.11328 0.45312-0.17188 0.73438-0.17188 0.039062 0 0.082031 0.007813 0.125 0.015625 0.050781 0 0.11719 0.007812 0.20312 0.015625z"/>
  </symbol>
  <symbol id="b" overflow="visible">
   <path d="m4.375-1.9062v0.34375h-2.8438c0.03125 0.28125 0.13281 0.49609 0.3125 0.64062 0.17578 0.14844 0.42188 0.21875 0.73438 0.21875 0.25781 0 0.51953-0.035156 0.78125-0.10938 0.26953-0.082031 0.54688-0.20312 0.82812-0.35938v0.9375c-0.28125 0.11719-0.57031 0.19922-0.85938 0.25-0.28125 0.050781-0.57031 0.078125-0.85938 0.078125-0.6875 0-1.2266-0.17188-1.6094-0.51562-0.375-0.35156-0.5625-0.84375-0.5625-1.4688s0.1875-1.1133 0.5625-1.4688c0.375-0.35156 0.89062-0.53125 1.5469-0.53125 0.59375 0 1.0664 0.18359 1.4219 0.54688 0.36328 0.35547 0.54688 0.83594 0.54688 1.4375zm-1.25-0.40625c0-0.22656-0.070312-0.41016-0.20312-0.54688-0.13672-0.14453-0.3125-0.21875-0.53125-0.21875-0.23047 0-0.41797 0.070313-0.5625 0.20312-0.14844 0.125-0.24219 0.3125-0.28125 0.5625z"/>
  </symbol>
  <symbol id="l" overflow="visible">
   <path d="m2.2812-1.7031c-0.25 0-0.44531 0.042969-0.57812 0.125-0.125 0.085937-0.1875 0.21094-0.1875 0.375 0 0.15625 0.050781 0.28125 0.15625 0.375 0.10156 0.085937 0.25 0.125 0.4375 0.125 0.22656 0 0.41406-0.082031 0.5625-0.25 0.15625-0.16406 0.23438-0.36719 0.23438-0.60938v-0.14062zm1.8594-0.46875v2.1719h-1.2344v-0.5625c-0.15625 0.23047-0.33984 0.39844-0.54688 0.5-0.19922 0.10156-0.44531 0.15625-0.73438 0.15625-0.39844 0-0.71875-0.11328-0.96875-0.34375-0.24219-0.22656-0.35938-0.52344-0.35938-0.89062 0-0.44531 0.14844-0.76953 0.45312-0.96875 0.3125-0.20703 0.79688-0.3125 1.4531-0.3125h0.70312v-0.10938c0-0.1875-0.078125-0.32031-0.23438-0.40625-0.14844-0.09375-0.375-0.14062-0.6875-0.14062-0.26172 0-0.50781 0.027344-0.73438 0.078125-0.21875 0.054688-0.42969 0.13281-0.625 0.23438v-0.92188c0.25781-0.0625 0.51953-0.10938 0.78125-0.14062 0.26953-0.039063 0.53516-0.0625 0.79688-0.0625 0.67578 0 1.1641 0.13672 1.4688 0.40625 0.3125 0.27344 0.46875 0.71094 0.46875 1.3125z"/>
  </symbol>
  <symbol id="a" overflow="visible">
   <path d="m1.9062-4.875v1.0781h1.25v0.875h-1.25v1.6094c0 0.17969 0.03125 0.29688 0.09375 0.35938 0.070312 0.054687 0.21094 0.078125 0.42188 0.078125h0.625v0.875h-1.0312c-0.48047 0-0.82422-0.097656-1.0312-0.29688-0.19922-0.19531-0.29688-0.53516-0.29688-1.0156v-1.6094h-0.59375v-0.875h0.59375v-1.0781z"/>
  </symbol>
  <symbol id="f" overflow="visible">
   <path d="m3.1562-3.2344v-2.0312h1.2344v5.2656h-1.2344v-0.54688c-0.16797 0.21875-0.35156 0.38281-0.54688 0.48438-0.19922 0.10156-0.43359 0.15625-0.70312 0.15625-0.46094 0-0.83984-0.17969-1.1406-0.54688-0.30469-0.375-0.45312-0.85156-0.45312-1.4375 0-0.58203 0.14844-1.0625 0.45312-1.4375 0.30078-0.375 0.67969-0.5625 1.1406-0.5625 0.26953 0 0.50391 0.054687 0.70312 0.15625 0.19531 0.10547 0.37891 0.27344 0.54688 0.5zm-0.79688 2.4531c0.25781 0 0.45703-0.09375 0.59375-0.28125 0.13281-0.19531 0.20312-0.47266 0.20312-0.82812 0-0.36328-0.070312-0.64062-0.20312-0.82812-0.13672-0.1875-0.33594-0.28125-0.59375-0.28125-0.25 0-0.44922 0.09375-0.59375 0.28125-0.13672 0.1875-0.20312 0.46484-0.20312 0.82812 0 0.35547 0.066406 0.63281 0.20312 0.82812 0.14453 0.1875 0.34375 0.28125 0.59375 0.28125z"/>
  </symbol>
  <symbol id="k" overflow="visible">
   <path d="m2.6094-0.78125c0.25 0 0.44141-0.09375 0.57812-0.28125 0.14453-0.19531 0.21875-0.47266 0.21875-0.82812 0-0.36328-0.074219-0.64062-0.21875-0.82812-0.13672-0.1875-0.32812-0.28125-0.57812-0.28125-0.26172 0-0.46484 0.09375-0.60938 0.28125-0.13672 0.1875-0.20312 0.46484-0.20312 0.82812 0 0.35547 0.066406 0.63281 0.20312 0.82812 0.14453 0.1875 0.34766 0.28125 0.60938 0.28125zm-0.8125-2.4531c0.16406-0.22656 0.34766-0.39453 0.54688-0.5 0.20703-0.10156 0.44141-0.15625 0.70312-0.15625 0.46875 0 0.85156 0.1875 1.1562 0.5625 0.30078 0.375 0.45312 0.85547 0.45312 1.4375 0 0.58594-0.15234 1.0625-0.45312 1.4375-0.30469 0.36719-0.6875 0.54688-1.1562 0.54688-0.26172 0-0.49609-0.054688-0.70312-0.15625-0.19922-0.10156-0.38281-0.26562-0.54688-0.48438v0.54688h-1.2188v-5.2656h1.2188z"/>
  </symbol>
  <symbol id="e" overflow="visible">
   <path d="m0.078125-3.7969h1.2188l1.0156 2.5781 0.875-2.5781h1.2031l-1.5938 4.1562c-0.15625 0.42578-0.34375 0.72266-0.5625 0.89062-0.21094 0.16406-0.49219 0.25-0.84375 0.25h-0.70312v-0.79688h0.39062c0.19531 0 0.34375-0.039063 0.4375-0.10938 0.09375-0.0625 0.16406-0.17969 0.21875-0.34375l0.046875-0.10938z"/>
  </symbol>
  <symbol id="j" overflow="visible">
   <path d="m3.7031-0.92188h-2.0312l-0.32812 0.92188h-1.3125l1.875-5.0625h1.5625l1.8594 5.0625h-1.2969zm-1.7188-0.9375h1.3906l-0.6875-2.0156z"/>
  </symbol>
  <symbol id="i" overflow="visible">
   <path d="m4.0938-3.1562c0.15625-0.23828 0.33594-0.42188 0.54688-0.54688 0.21875-0.125 0.45312-0.1875 0.70312-0.1875 0.4375 0 0.76953 0.13672 1 0.40625 0.22656 0.27344 0.34375 0.66406 0.34375 1.1719v2.3125h-1.2344v-1.9844c0.007813-0.019531 0.015625-0.046875 0.015625-0.078125v-0.14062c0-0.26953-0.042969-0.46094-0.125-0.57812-0.074219-0.125-0.19922-0.1875-0.375-0.1875-0.23047 0-0.40625 0.09375-0.53125 0.28125s-0.19531 0.46484-0.20312 0.82812v1.8594h-1.2188v-1.9844c0-0.41406-0.039063-0.67969-0.10938-0.79688-0.074219-0.125-0.19922-0.1875-0.375-0.1875-0.24219 0-0.42188 0.10156-0.54688 0.29688-0.125 0.1875-0.1875 0.46094-0.1875 0.8125v1.8594h-1.2188v-3.7969h1.2188v0.5625c0.14453-0.21875 0.3125-0.37891 0.5-0.48438 0.19531-0.11328 0.41406-0.17188 0.65625-0.17188 0.25781 0 0.48828 0.070313 0.6875 0.20312 0.19531 0.125 0.34766 0.30469 0.45312 0.53125z"/>
  </symbol>
  <symbol id="h" overflow="visible">
   <path d="m4.3906-2.3125v2.3125h-1.2188v-1.7656c0-0.33203-0.007813-0.55469-0.015625-0.67188-0.011719-0.125-0.039062-0.21875-0.078125-0.28125-0.042969-0.082031-0.10547-0.14453-0.1875-0.1875-0.085937-0.039062-0.17969-0.0625-0.28125-0.0625-0.25 0-0.44922 0.10156-0.59375 0.29688-0.14844 0.1875-0.21875 0.46094-0.21875 0.8125v1.8594h-1.2188v-5.2656h1.2188v2.0312c0.17578-0.22656 0.36719-0.39453 0.57812-0.5 0.20703-0.10156 0.4375-0.15625 0.6875-0.15625 0.4375 0 0.76562 0.13672 0.98438 0.40625 0.22656 0.27344 0.34375 0.66406 0.34375 1.1719z"/>
  </symbol>
  <symbol id="u" overflow="visible">
   <path d="m3.5469-3.6719v0.92188c-0.26172-0.11328-0.51172-0.19531-0.75-0.25-0.24219-0.050781-0.46875-0.078125-0.6875-0.078125-0.23047 0-0.40234 0.03125-0.51562 0.09375-0.11719 0.054687-0.17188 0.13672-0.17188 0.25 0 0.10547 0.039063 0.18359 0.125 0.23438 0.09375 0.054688 0.25 0.089844 0.46875 0.10938l0.20312 0.03125c0.625 0.085937 1.0391 0.21484 1.25 0.39062 0.21875 0.17969 0.32812 0.46094 0.32812 0.84375 0 0.40625-0.15234 0.71484-0.45312 0.92188-0.29297 0.19922-0.73438 0.29688-1.3281 0.29688-0.25 0-0.51172-0.023438-0.78125-0.0625-0.26172-0.03125-0.53125-0.085938-0.8125-0.17188v-0.92188c0.23828 0.11719 0.48438 0.20312 0.73438 0.26562 0.25781 0.0625 0.51953 0.09375 0.78125 0.09375 0.23828 0 0.41406-0.03125 0.53125-0.09375 0.125-0.070313 0.1875-0.17188 0.1875-0.29688 0-0.11328-0.042969-0.19531-0.125-0.25-0.085938-0.050781-0.25-0.09375-0.5-0.125l-0.21875-0.015625c-0.53125-0.070313-0.90625-0.19531-1.125-0.375-0.21875-0.1875-0.32812-0.46875-0.32812-0.84375 0-0.39453 0.13281-0.69141 0.40625-0.89062 0.28125-0.19531 0.70703-0.29688 1.2812-0.29688 0.21875 0 0.44531 0.023437 0.6875 0.0625 0.25 0.03125 0.51953 0.085937 0.8125 0.15625z"/>
  </symbol>
  <symbol id="t" overflow="visible">
   <path d="m4.1562-4.8906v1.0625c-0.28125-0.125-0.55469-0.21875-0.8125-0.28125-0.26172-0.0625-0.51172-0.09375-0.75-0.09375-0.3125 0-0.54297 0.042969-0.6875 0.125-0.14844 0.085937-0.21875 0.21875-0.21875 0.40625 0 0.13672 0.046875 0.24219 0.14062 0.3125 0.10156 0.074219 0.28516 0.14062 0.54688 0.20312l0.5625 0.10938c0.5625 0.11719 0.95703 0.28906 1.1875 0.51562 0.23828 0.23047 0.35938 0.55469 0.35938 0.96875 0 0.5625-0.16797 0.98047-0.5 1.25-0.32422 0.27344-0.82812 0.40625-1.5156 0.40625-0.3125 0-0.63281-0.03125-0.95312-0.09375-0.32422-0.050781-0.64844-0.14062-0.96875-0.26562v-1.0938c0.32031 0.16797 0.63281 0.29688 0.9375 0.39062 0.30078 0.085938 0.58594 0.125 0.85938 0.125 0.28906 0 0.50781-0.046875 0.65625-0.14062 0.15625-0.09375 0.23438-0.22656 0.23438-0.40625 0-0.15625-0.054687-0.27344-0.15625-0.35938-0.10547-0.09375-0.30859-0.17188-0.60938-0.23438l-0.51562-0.125c-0.5-0.10156-0.87109-0.27344-1.1094-0.51562-0.23047-0.23828-0.34375-0.55469-0.34375-0.95312 0-0.50781 0.16016-0.89844 0.48438-1.1719 0.32031-0.26953 0.78906-0.40625 1.4062-0.40625 0.28125 0 0.56641 0.023438 0.85938 0.0625 0.28906 0.042969 0.59375 0.10938 0.90625 0.20312z"/>
  </symbol>
  <symbol id="g" overflow="visible">
   <path d="m0.54688-1.4844v-2.3125h1.2188v0.375c0 0.21094-0.007813 0.46875-0.015625 0.78125v0.625c0 0.30469 0.003906 0.52344 0.015625 0.65625 0.019531 0.13672 0.050781 0.23438 0.09375 0.29688 0.050781 0.074219 0.11328 0.13672 0.1875 0.1875 0.082031 0.042969 0.17578 0.0625 0.28125 0.0625 0.25 0 0.44531-0.097656 0.59375-0.29688 0.14453-0.19531 0.21875-0.46875 0.21875-0.8125v-1.875h1.2188v3.7969h-1.2188v-0.54688c-0.17969 0.21875-0.37109 0.38281-0.57812 0.48438-0.21094 0.10156-0.43359 0.15625-0.67188 0.15625-0.4375 0-0.77344-0.12891-1-0.39062-0.23047-0.26953-0.34375-0.66406-0.34375-1.1875z"/>
  </symbol>
  <symbol id="s" overflow="visible">
   <path d="m0.57812-3.7969h1.2188v3.7969h-1.2188zm0-1.4688h1.2188v0.98438h-1.2188z"/>
  </symbol>
  <symbol id="c" overflow="visible">
   <path d="m2.3906-3.0156c-0.27344 0-0.48047 0.10156-0.625 0.29688-0.13672 0.1875-0.20312 0.46484-0.20312 0.82812 0 0.36719 0.066406 0.64844 0.20312 0.84375 0.14453 0.1875 0.35156 0.28125 0.625 0.28125 0.25781 0 0.45703-0.09375 0.59375-0.28125 0.14453-0.19531 0.21875-0.47656 0.21875-0.84375 0-0.36328-0.074219-0.64062-0.21875-0.82812-0.13672-0.19531-0.33594-0.29688-0.59375-0.29688zm0-0.875c0.64453 0 1.1484 0.17969 1.5156 0.53125 0.375 0.35547 0.5625 0.84375 0.5625 1.4688s-0.1875 1.1172-0.5625 1.4688c-0.36719 0.34375-0.87109 0.51562-1.5156 0.51562-0.65625 0-1.1719-0.17188-1.5469-0.51562-0.36719-0.35156-0.54688-0.84375-0.54688-1.4688s0.17969-1.1133 0.54688-1.4688c0.375-0.35156 0.89062-0.53125 1.5469-0.53125z"/>
  </symbol>
  <symbol id="r" overflow="visible">
   <path d="m3.0781-5.2656v0.79688h-0.67188c-0.16797 0-0.28906 0.03125-0.35938 0.09375-0.0625 0.0625-0.09375 0.16797-0.09375 0.3125v0.26562h1.0312v0.875h-1.0312v2.9219h-1.2188v-2.9219h-0.60938v-0.875h0.60938v-0.26562c0-0.40625 0.11328-0.70703 0.34375-0.90625 0.22656-0.19531 0.58594-0.29688 1.0781-0.29688z"/>
  </symbol>
  <symbol id="q" overflow="visible">
   <path d="m0.64062-5.0625h1.4531l1.8438 3.4688v-3.4688h1.2344v5.0625h-1.4531l-1.8438-3.4688v3.4688h-1.2344z"/>
  </symbol>
  <symbol id="p" overflow="visible">
   <path d="m4.3906-2.3125v2.3125h-1.2188v-1.7656c0-0.33203-0.007813-0.55469-0.015625-0.67188-0.011719-0.125-0.039062-0.21875-0.078125-0.28125-0.042969-0.082031-0.10547-0.14453-0.1875-0.1875-0.085937-0.039062-0.17969-0.0625-0.28125-0.0625-0.25 0-0.44922 0.10156-0.59375 0.29688-0.14844 0.1875-0.21875 0.46094-0.21875 0.8125v1.8594h-1.2188v-3.7969h1.2188v0.5625c0.17578-0.22656 0.36719-0.39453 0.57812-0.5 0.20703-0.10156 0.4375-0.15625 0.6875-0.15625 0.4375 0 0.76562 0.13672 0.98438 0.40625 0.22656 0.27344 0.34375 0.66406 0.34375 1.1719z"/>
  </symbol>
  <symbol id="o" overflow="visible">
   <path d="m0.64062-5.0625h2.1562c0.64453 0 1.1406 0.14844 1.4844 0.4375 0.34375 0.28125 0.51562 0.6875 0.51562 1.2188s-0.17188 0.94531-0.51562 1.2344c-0.34375 0.28125-0.83984 0.42188-1.4844 0.42188h-0.85938v1.75h-1.2969zm1.2969 0.95312v1.4062h0.71875c0.25781 0 0.45703-0.054687 0.59375-0.17188 0.13281-0.125 0.20312-0.30078 0.20312-0.53125 0-0.22656-0.070313-0.39844-0.20312-0.51562-0.13672-0.125-0.33594-0.1875-0.59375-0.1875z"/>
  </symbol>
  <symbol id="n" overflow="visible">
   <path d="m0.57812-3.7969h1.2188v3.7344c0 0.5-0.125 0.88281-0.375 1.1562-0.24219 0.26953-0.58984 0.40625-1.0469 0.40625h-0.60938v-0.79688h0.21875c0.22656 0 0.38281-0.054687 0.46875-0.15625 0.082031-0.10547 0.125-0.30859 0.125-0.60938zm0-1.4688h1.2188v0.98438h-1.2188z"/>
  </symbol>
  <symbol id="m" overflow="visible">
   <path d="m3.6406-3.6719v0.98438c-0.15625-0.11328-0.32031-0.19531-0.48438-0.25-0.16797-0.050781-0.33984-0.078125-0.51562-0.078125-0.34375 0-0.60938 0.10156-0.79688 0.29688-0.1875 0.19922-0.28125 0.47656-0.28125 0.82812 0 0.35547 0.09375 0.63281 0.28125 0.82812 0.1875 0.19922 0.45312 0.29688 0.79688 0.29688 0.1875 0 0.36328-0.023437 0.53125-0.078125 0.17578-0.0625 0.33203-0.14844 0.46875-0.26562v1c-0.1875 0.074219-0.38281 0.125-0.57812 0.15625-0.1875 0.03125-0.38281 0.046875-0.57812 0.046875-0.6875 0-1.2266-0.17188-1.6094-0.51562-0.38672-0.35156-0.57812-0.84375-0.57812-1.4688s0.19141-1.1133 0.57812-1.4688c0.38281-0.35156 0.92188-0.53125 1.6094-0.53125 0.19531 0 0.39062 0.023437 0.57812 0.0625 0.19531 0.03125 0.39062 0.085937 0.57812 0.15625z"/>
  </symbol>
 </defs>
 <g>
  <path d="m664.4 2.7773h-628.8c-19.629 0-35.602 15.973-35.602 35.602v484.35c0 19.633 15.973 35.602 35.602 35.602h628.79c19.633 0 35.605-15.969 35.605-35.602v-484.35c0-19.629-15.973-35.602-35.602-35.602zm-628.8 11.113h628.79c13.508 0 24.496 10.984 24.496 24.488v56.25h-677.78v-56.25c0-13.504 10.988-24.488 24.492-24.488zm628.8 533.33h-628.8c-13.504 0-24.492-10.988-24.492-24.492v-416.99h677.78v416.99c0.003906 13.504-10.984 24.492-24.488 24.492z"/>
  <path d="m648.52 77.039c12.559 0 22.777-10.219 22.777-22.777 0-12.559-10.219-22.777-22.777-22.777-12.559 0-22.777 10.215-22.777 22.777 0 12.559 10.215 22.777 22.777 22.777zm0-34.445c6.4336 0 11.668 5.2344 11.668 11.664 0 6.4336-5.2344 11.668-11.668 11.668-6.4336 0-11.668-5.2344-11.668-11.668 0-6.4297 5.2344-11.664 11.668-11.664z"/>
  <path d="m585.37 77.039c12.559 0 22.777-10.219 22.777-22.777 0-12.559-10.219-22.777-22.777-22.777s-22.777 10.215-22.777 22.777c0 12.559 10.219 22.777 22.777 22.777zm0-34.445c6.4336 0 11.668 5.2344 11.668 11.664 0 6.4336-5.2344 11.668-11.668 11.668s-11.668-5.2344-11.668-11.668c0-6.4297 5.2344-11.664 11.668-11.664z"/>
  <path d="m522.22 77.039c12.559 0 22.777-10.219 22.777-22.777 0-12.559-10.219-22.777-22.777-22.777s-22.777 10.215-22.777 22.777c0 12.559 10.219 22.777 22.777 22.777zm0-34.445c6.4336 0 11.668 5.2344 11.668 11.664 0 6.4336-5.2344 11.668-11.668 11.668s-11.668-5.2344-11.668-11.668c0-6.4297 5.2344-11.664 11.668-11.664z"/>
  <path d="m246.86 310.75c1.6289-1.625 2.0352-4.0156 1.2188-6.0195-0.26953-0.66797-0.67969-1.2969-1.2227-1.8359l-69.078-69.086v-97.699c0-3.0664-2.4883-5.5547-5.5547-5.5547-58.203 0-105.55 47.352-105.55 105.55 0 48.59 33.012 89.594 77.777 101.82v37.07h-50c-3.0664 0-5.5547 2.4883-5.5547 5.5547 0 3.0664 2.4883 5.5547 5.5547 5.5547h55.555c3.0664 0 5.5547-2.4883 5.5547-5.5547v-40.215c5.4336 0.86719 10.996 1.3281 16.668 1.3281 28.195 0 54.703-10.98 74.637-30.918zm-169.08-74.641c0-50.211 39.391-91.379 88.891-94.27v94.27c0 1.4727 0.58594 2.8867 1.625 3.9297l66.66 66.66c-17.305 15.414-39.367 23.855-62.73 23.855-52.078 0-94.445-42.367-94.445-94.445z"/>
  <path d="m255.67 283.93c1.0859 1.0859 2.5078 1.6289 3.9297 1.6289 1.4219 0 2.8438-0.54297 3.9297-1.6289 16.969-16.969 26.316-39.527 26.316-63.527 0-10.789-1.9141-21.137-5.418-30.73l12.57-14.668h53c3.0664 0 5.5547-2.4883 5.5547-5.5547 0-3.0664-2.4883-5.5547-5.5547-5.5547h-55.555c-1.6211 0-3.1641 0.70703-4.2188 1.9375l-10.812 12.617c-15.098-28.453-45.02-47.891-79.414-47.891-3.0664 0-5.5547 2.4883-5.5547 5.5547v84.289c0 1.4727 0.58594 2.8867 1.625 3.9297zm-50.117-142.07c40.828 2.8594 73.176 36.992 73.176 78.539 0 19.168-6.8047 37.289-19.27 51.605l-53.906-53.906z"/>
  <path d="m133.33 402.78h-55.555c-3.0664 0-5.5547 2.4883-5.5547 5.5547 0 3.0664 2.4883 5.5547 5.5547 5.5547h55.555c3.0664 0 5.5547-2.4883 5.5547-5.5547 0.003906-3.0664-2.4844-5.5547-5.5547-5.5547z"/>
  <path d="m305.55 197.22c0 3.0664 2.4883 5.5547 5.5547 5.5547h50c3.0664 0 5.5547-2.4883 5.5547-5.5547s-2.4883-5.5547-5.5547-5.5547h-50c-3.0664-0.003907-5.5547 2.4844-5.5547 5.5547z"/>
  <path d="m622.22 319.45h-222.22v-172.22c0-3.0664-2.4883-5.5547-5.5547-5.5547-3.0664 0-5.5547 2.4883-5.5547 5.5547v177.78c0 3.0664 2.4883 5.5547 5.5547 5.5547h227.78c3.0664 0 5.5547-2.4883 5.5547-5.5547s-2.4883-5.5547-5.5547-5.5547z"/>
  <path d="m611.11 163.89c-9.1914 0-16.668 7.4766-16.668 16.668 0 3.2773 0.96484 6.3281 2.6016 8.9062l-41.715 53.098c-1.6758-0.57422-3.4609-0.89453-5.3281-0.89453-3.5 0-6.7461 1.0898-9.4297 2.9375l-35.711-25.973c0.44922-1.5039 0.69531-3.0977 0.69531-4.7461 0-9.1914-7.4766-16.668-16.668-16.668-9.1914 0-16.668 7.4766-16.668 16.668 0 2.8516 0.72266 5.5352 1.9883 7.8867l-34.418 37.859c-1.9883-0.83984-4.168-1.3047-6.457-1.3047-9.1914 0-16.668 7.4766-16.668 16.668s7.4766 16.668 16.668 16.668c9.1914 0 16.668-7.4766 16.668-16.668 0-2.8516-0.72266-5.5352-1.9883-7.8867l34.418-37.859c1.9883 0.83984 4.168 1.3047 6.457 1.3047 3.5 0 6.7461-1.0898 9.4297-2.9375l35.711 25.973c-0.44531 1.5039-0.69531 3.0938-0.69531 4.7422 0 9.1914 7.4766 16.668 16.668 16.668s16.668-7.4766 16.668-16.668c0-3.2773-0.96484-6.3281-2.6016-8.9062l41.715-53.094c1.6758 0.56641 3.4648 0.89062 5.332 0.89062 9.1914 0 16.668-7.4766 16.668-16.668-0.003906-9.1875-7.4805-16.664-16.672-16.664zm-177.78 116.66c-3.0625 0-5.5547-2.4922-5.5547-5.5547s2.4922-5.5547 5.5547-5.5547 5.5547 2.4922 5.5547 5.5547c0.003906 3.0625-2.4883 5.5547-5.5547 5.5547zm50-66.664c0-3.0625 2.4922-5.5547 5.5547-5.5547s5.5547 2.4922 5.5547 5.5547-2.4922 5.5547-5.5547 5.5547-5.5547-2.4922-5.5547-5.5547zm66.668 50c-3.0625 0-5.5547-2.4922-5.5547-5.5547s2.4922-5.5547 5.5547-5.5547 5.5547 2.4922 5.5547 5.5547-2.4922 5.5547-5.5547 5.5547zm61.109-77.781c-3.0625 0-5.5547-2.4922-5.5547-5.5547s2.4922-5.5547 5.5547-5.5547 5.5547 2.4922 5.5547 5.5547c0.003907 3.0664-2.4883 5.5547-5.5547 5.5547z"/>
  <path d="m572.22 380.55h-277.78c-3.0664 0-5.5547 2.4883-5.5547 5.5547s2.4883 5.5547 5.5547 5.5547h277.78c3.0664 0 5.5547-2.4883 5.5547-5.5547s-2.4883-5.5547-5.5547-5.5547z"/>
  <path d="m238.89 430.55c0 3.0664 2.4883 5.5547 5.5547 5.5547h83.332c3.0664 0 5.5547-2.4883 5.5547-5.5547 0-3.0664-2.4883-5.5547-5.5547-5.5547h-83.332c-3.0703 0-5.5547 2.4883-5.5547 5.5547z"/>
  <path d="m572.22 425h-200c-3.0664 0-5.5547 2.4883-5.5547 5.5547 0 3.0664 2.4883 5.5547 5.5547 5.5547h200c3.0664 0 5.5547-2.4883 5.5547-5.5547 0-3.0664-2.4883-5.5547-5.5547-5.5547z"/>
  <path d="m572.22 469.45h-327.78c-3.0664 0-5.5547 2.4883-5.5547 5.5547s2.4883 5.5547 5.5547 5.5547h327.78c3.0664 0 5.5547-2.4883 5.5547-5.5547s-2.4883-5.5547-5.5547-5.5547z"/>
  <use y="579.167969" xlink:href="#v"/>
  <use x="5.097656" y="579.167969" xlink:href="#d"/>
  <use x="8.519531" y="579.167969" xlink:href="#b"/>
  <use x="13.230469" y="579.167969" xlink:href="#l"/>
  <use x="17.917969" y="579.167969" xlink:href="#a"/>
  <use x="21.238281" y="579.167969" xlink:href="#b"/>
  <use x="25.945312" y="579.167969" xlink:href="#f"/>
  <use x="33.335937" y="579.167969" xlink:href="#k"/>
  <use x="38.304688" y="579.167969" xlink:href="#e"/>
  <use x="45.25" y="579.167969" xlink:href="#j"/>
  <use x="50.625" y="579.167969" xlink:href="#i"/>
  <use x="57.859375" y="579.167969" xlink:href="#b"/>
  <use x="62.570312" y="579.167969" xlink:href="#a"/>
  <use x="65.890625" y="579.167969" xlink:href="#h"/>
  <use x="70.835938" y="579.167969" xlink:href="#e"/>
  <use x="75.363281" y="579.167969" xlink:href="#u"/>
  <use x="79.496094" y="579.167969" xlink:href="#a"/>
  <use x="85.230469" y="579.167969" xlink:href="#t"/>
  <use x="90.234375" y="579.167969" xlink:href="#a"/>
  <use x="93.554688" y="579.167969" xlink:href="#g"/>
  <use x="98.496094" y="579.167969" xlink:href="#f"/>
  <use x="103.46875" y="579.167969" xlink:href="#s"/>
  <use x="105.847656" y="579.167969" xlink:href="#c"/>
  <use y="586.109375" xlink:href="#r"/>
  <use x="3.019531" y="586.109375" xlink:href="#d"/>
  <use x="6.445312" y="586.109375" xlink:href="#c"/>
  <use x="11.21875" y="586.109375" xlink:href="#i"/>
  <use x="20.871094" y="586.109375" xlink:href="#a"/>
  <use x="24.191406" y="586.109375" xlink:href="#h"/>
  <use x="29.132812" y="586.109375" xlink:href="#b"/>
  <use x="36.261719" y="586.109375" xlink:href="#q"/>
  <use x="42.074219" y="586.109375" xlink:href="#c"/>
  <use x="46.84375" y="586.109375" xlink:href="#g"/>
  <use x="51.789062" y="586.109375" xlink:href="#p"/>
  <use x="59.148438" y="586.109375" xlink:href="#o"/>
  <use x="64.238281" y="586.109375" xlink:href="#d"/>
  <use x="67.664062" y="586.109375" xlink:href="#c"/>
  <use x="72.433594" y="586.109375" xlink:href="#n"/>
  <use x="74.816406" y="586.109375" xlink:href="#b"/>
  <use x="79.527344" y="586.109375" xlink:href="#m"/>
  <use x="83.640625" y="586.109375" xlink:href="#a"/>
 </g>
</svg>
