<?xml version="1.0" standalone="no"?>
<!DOCTYPE svg PUBLIC "-//W3C//DTD SVG 20010904//EN"
 "http://www.w3.org/TR/2001/REC-SVG-20010904/DTD/svg10.dtd">
<svg version="1.0" xmlns="http://www.w3.org/2000/svg"
 width="80.000000pt" height="80.000000pt" viewBox="0 0 80.000000 80.000000"
 preserveAspectRatio="xMidYMid meet">

<g transform="translate(0.000000,80.000000) scale(0.100000,-0.100000)"
fill="#000000" stroke="none">
<path d="M205 675 c-50 -49 -15 -135 55 -135 41 0 80 39 80 80 0 41 -39 80
-80 80 -19 0 -40 -9 -55 -25z m95 -15 c11 -11 20 -29 20 -40 0 -26 -34 -60
-60 -60 -26 0 -60 34 -60 60 0 11 9 29 20 40 11 11 29 20 40 20 11 0 29 -9 40
-20z"/>
<path d="M350 660 c0 -6 62 -10 165 -10 l165 0 0 -195 0 -195 -150 0 c-93 0
-150 -4 -150 -10 0 -6 63 -10 170 -10 144 0 170 -2 170 -15 0 -13 -26 -15
-170 -15 -109 0 -170 -4 -170 -10 0 -7 59 -10 171 -8 153 3 173 5 183 21 9 15
7 22 -11 37 -22 18 -23 23 -23 219 l0 201 -175 0 c-110 0 -175 -4 -175 -10z"/>
<path d="M122 487 c-20 -21 -22 -34 -22 -148 0 -129 6 -149 42 -149 14 0 18
-8 18 -40 0 -22 5 -40 10 -40 6 0 10 27 10 60 0 60 -6 70 -27 49 -25 -25 -33
4 -33 121 0 94 3 122 16 134 20 20 68 21 84 1 7 -8 23 -15 35 -15 12 0 28 7
35 15 23 27 62 18 107 -27 l43 -42 40 39 c31 31 43 36 52 27 10 -10 1 -23 -40
-64 l-52 -53 -50 50 -50 49 0 -172 c0 -108 4 -172 10 -172 6 0 10 56 10 147
l0 147 33 -32 c18 -18 40 -32 48 -32 19 0 119 101 119 121 0 19 -20 39 -39 39
-8 0 -30 -14 -48 -32 l-33 -32 -38 37 c-29 29 -46 37 -74 37 -19 0 -41 -7 -48
-15 -7 -8 -18 -15 -25 -15 -7 0 -18 7 -25 15 -20 24 -83 19 -108 -8z"/>
<path d="M160 420 c0 -5 5 -10 10 -10 6 0 10 5 10 10 0 6 -4 10 -10 10 -5 0
-10 -4 -10 -10z"/>
<path d="M160 380 c0 -5 5 -10 10 -10 6 0 10 5 10 10 0 6 -4 10 -10 10 -5 0
-10 -4 -10 -10z"/>
<path d="M160 340 c0 -5 5 -10 10 -10 6 0 10 5 10 10 0 6 -4 10 -10 10 -5 0
-10 -4 -10 -10z"/>
<path d="M160 300 c0 -5 5 -10 10 -10 6 0 10 5 10 10 0 6 -4 10 -10 10 -5 0
-10 -4 -10 -10z"/>
<path d="M160 260 c0 -5 5 -10 10 -10 6 0 10 5 10 10 0 6 -4 10 -10 10 -5 0
-10 -4 -10 -10z"/>
<path d="M230 145 c0 -19 5 -35 10 -35 6 0 10 11 10 25 0 14 5 25 10 25 6 0
10 -11 10 -25 0 -14 5 -25 10 -25 6 0 10 16 10 35 0 32 -2 35 -30 35 -28 0
-30 -3 -30 -35z"/>
</g>
</svg>
